<?xml version="1.0" encoding="UTF-8" standalone="no"?>
<svg
   viewBox="0 -3.268 64 53.953876"
   width="2232"
   height="1971.5948"
   version="1.1"
   id="svg1"
   sodipodi:docname="bluesky-1.svg"
   inkscape:version="1.3.2 (091e20e, 2023-11-25, custom)"
   xmlns:inkscape="http://www.inkscape.org/namespaces/inkscape"
   xmlns:sodipodi="http://sodipodi.sourceforge.net/DTD/sodipodi-0.dtd"
   xmlns="http://www.w3.org/2000/svg"
   xmlns:svg="http://www.w3.org/2000/svg">
  <defs
     id="defs1" />
  <sodipodi:namedview
     id="namedview1"
     pagecolor="#ffffff"
     bordercolor="#666666"
     borderopacity="1.0"
     inkscape:showpageshadow="2"
     inkscape:pageopacity="0.0"
     inkscape:pagecheckerboard="0"
     inkscape:deskcolor="#d1d1d1"
     showgrid="false"
     inkscape:zoom="0.47008459"
     inkscape:cx="-309.51876"
     inkscape:cy="2134.7222"
     inkscape:window-width="1920"
     inkscape:window-height="1027"
     inkscape:window-x="-8"
     inkscape:window-y="-8"
     inkscape:window-maximized="1"
     inkscape:current-layer="svg1" />
  <path
     fill="#0085ff"
     d="m 13.872999,-0.77464561 c 7.337,5.52700001 15.23,16.73199961 18.127,22.74499961 v 15.882 c 0,-0.338 -0.13,0.044 -0.41,0.867 -1.512,4.456 -7.418,21.847 -20.923,7.944 -7.110999,-7.32 -3.818999,-14.64 9.125,-16.85 -7.405,1.264 -15.729999,-0.825 -18.013999,-9.015 C 1.12,18.442354 0,3.9303544 0,1.9703544 c 0,-9.818 8.579,-6.732 13.872999,-2.74500001 z m 36.254,0 c -7.337,5.52700001 -15.23,16.73199961 -18.127,22.74499961 v 15.882 c 0,-0.338 0.13,0.044 0.41,0.867 1.512,4.456 7.418,21.847 20.923,7.944 7.111,-7.32 3.819,-14.64 -9.125,-16.85 7.405,1.264 15.73,-0.825 18.014,-9.015 0.658,-2.356 1.778,-16.8679996 1.778,-18.8279996 0,-9.818 -8.578,-6.732 -13.873,-2.74500001 z"
     id="path1"
     style="fill:#000000;fill-opacity:1" />
</svg>
